<svg id="b7ef7eb8-30eb-43d2-b7c1-14837e67f8ff" data-name="Layer 1" xmlns="http://www.w3.org/2000/svg" width="865.76" height="682.89" viewBox="0 0 865.76 682.89"><path d="M767.66,523.31A288.61,288.61,0,0,1,725,562.47c-68.45,51.33-140.85,60-140.85,60-39.17,6.32-122,3.73-122,3.73-112-1.26-112.61,2-112.61,2-42.19,4.89-90.75,1.88-90.75,1.88-85.86-11.3-156.92-69.86-156.92-69.86q-1.92-1.81-3.78-3.61C-12.27,449.23,48.39,331.9,48.39,331.9c38.19-69.64,135.79-95.31,135.79-95.31,100.93-30.88,129.25-63.37,129.25-63.37,35.36-34.25,66-49.25,66-49.25,161-82.48,316.41,13.19,316.41,13.19C806.33,199.43,832.69,348,832.69,348,845,442.9,767.66,523.31,767.66,523.31Z" fill="#000000"/><path d="M767.66,523.31A288.61,288.61,0,0,1,725,562.47c-68.45,51.33-140.85,60-140.85,60-39.17,6.32-122,3.73-122,3.73-112-1.26-112.61,2-112.61,2-42.19,4.89-90.75,1.88-90.75,1.88-85.86-11.3-156.92-69.86-156.92-69.86q-1.92-1.81-3.78-3.61C-12.27,449.23,48.39,331.9,48.39,331.9c38.19-69.64,135.79-95.31,135.79-95.31,100.93-30.88,129.25-63.37,129.25-63.37,35.36-34.25,66-49.25,66-49.25,161-82.48,316.41,13.19,316.41,13.19C806.33,199.43,832.69,348,832.69,348,845,442.9,767.66,523.31,767.66,523.31Z" fill="#fff" opacity="0.7"/><path d="M465.27,242.56s61.35-69.4,120.51,7.26c0,0,13.65,21.49,8,38.55,0,0,9.13,6.83-2.83,21.62,0,0,1.12,9.59-4,17.31,0,0,.63,11.31-7.65,18.33l-18.87,95.92-49.32,4-32.24-30.46L458,273.9Z" fill="#f1f2f2" opacity="0.57"/><path d="M725,562.47c-68.45,51.33-140.85,60-140.85,60-39.17,6.32-122,3.73-122,3.73-112-1.26-112.61,2-112.61,2-42.19,4.89-90.75,1.88-90.75,1.88-85.86-11.3-156.92-69.86-156.92-69.86q-1.92-1.81-3.78-3.61c21.39-2.17,73.65-5.32,174-.27l281.88,4.21Z" fill="#000000" opacity="0.26"/><path d="M553.85,568.26l26.33,5.19,36.35,40c-6.64,7-58.13-1.66-58.13-1.66-46.51-7.47-96.11,2.07-96.11,2.07-15.11-.89-18.36,2.29-19,4.14a1.29,1.29,0,0,1-1.54.87l-24.84-6.67c-7.47-11.62-45.23-2.9-45.23-2.9-18.68,4.56-130.31,10-130.31,10l-7.46-51H253L498.62,581Z" fill="#000000"/><path d="M358.65,436.4s.69-34,17.9-48.16c0,0,15.26-9,16.83-27.26,0,0,5.2-19.37,10.72-26.58l-4.85-7.1-4.7,2.18s-9.36,18.13-14.14,12.86a181.47,181.47,0,0,1-.75-24.61l-9.41-22.22s-2.67,12.11-6.19,16.06a2.18,2.18,0,0,1-3.81-1.57,22.53,22.53,0,0,0-.72-7.19,22.1,22.1,0,0,1-.94-7.66,38.21,38.21,0,0,1,1.49-8.3s5.46-7,1.5-17.7c0,0-6-14.5-13.55,0,0,0-.19,12.81-4.52,18.46a25.14,25.14,0,0,0-4.71,18.26s3.44,9.17-6.23,16.76L323,461.6l7.5,7.65,8.79-9.28s4.59-9.49,12.05-13.06C351.29,446.91,352.58,439.45,358.65,436.4Z" fill="#f1f2f2" opacity="0.57"/><path d="M382.6,430.87s4.59-14.68,31.33-15.8v9.81L399.81,442.2Z" fill="#f1f2f2" opacity="0.57"/><path d="M590.91,403.8s11.82-8.13,30.78,3.54c0,0-22.64-28.24-23.86-54.48,0,0-14-21.83,3.43-25.56l11.52,25.56s6.4,16.7,6.4-5.07c0,0,1.51-6.54-10.17-36,0,0-14.68-16.65-6.78-31.72l19.46,23.17s1.63-7.73,9.17,0c0,0-10.93-23.85,0-26.71l15.44,35.26a78.37,78.37,0,0,1,1.88,12.72s1.14,7.69,1.89,18.91c0,0,0,24,9,34.95,0,0,35.78,65.9,43.69,129a20.4,20.4,0,0,1,3.47.33c15.26,2.51,25.36,17,23.24,32.33a48.42,48.42,0,0,1-9,22.53l-77-.87L590.91,469Z" fill="#f1f2f2" opacity="0.57"/><path d="M500.18,415.65s-.26-14.25,1-17.67c0,0,7.1,3.6,6.53,8.09C507.71,406.07,507.71,411.32,500.18,415.65Z" fill="#530fca"/><path d="M500.18,415.65s-.26-14.25,1-17.67c0,0,7.1,3.6,6.53,8.09C507.71,406.07,507.71,411.32,500.18,415.65Z" opacity="0.2"/><path d="M643.5,553.87h0a16.49,16.49,0,0,0-1.84,9.61s1.85,15.81-21.41,13.64l-28.14-1.8h0l-10.62-.68s-17.05-3.1-23.26-13.33c0,0-4.65-8.38-9.61-8.07v0l-1.85,9.91L378.16,537.3s1.76-17.33-4-11.3l-19.08,8.29-4.63.94h0L285.51,548.6s-21.84-5.78-19.33-25.36c0,0-.25-28.88,19.59-28.88l44.68-25.1,8.79-9.29s4.27-8.54,12.06-13.06c0,0,2.5-12.59,18.57-14.7l17.83-1.87s11,2,17-4.37a10.85,10.85,0,0,0,1.32-1.65s.52-.77,1.42-2c.05-.08.12-.16.18-.24,2.67-3.55,8.31-10.32,13.78-12.42a2,2,0,0,1,.22-.09,9.63,9.63,0,0,1,1.9-.48h0l58.06,9.66,34.46,2h0a54.06,54.06,0,0,0,13.15.46c.4,0,.69-.07.88-.1l.27,0c.7-.1,1.4-.21,2.09-.34,0,0,7.63-4.6,15.73-.13h0l6.73,3.11h0l30.2,4.83,40.37,81.51s9.93-5.28,21.4,13C646.92,523.16,655.91,533.09,643.5,553.87Z" fill="#530fca"/><path d="M500.23,411.71c-.06,2.47-.05,3.94-.05,3.94l-20.72,17c-12,7.72-14.19,12.93-14.19,12.93a8.59,8.59,0,0,1-6.65-2.89c-5.65-4.26-12.68-15.31-12.68-15.31a40.12,40.12,0,0,0-2.74-4l0-.06a4.82,4.82,0,0,0-.35-.44,2,2,0,0,0-.17-.23l0,0a63.06,63.06,0,0,0-11-10.73V387.65l73.91-15C501.35,386.21,500.42,403.94,500.23,411.71Z" fill="#fec0af"/><path d="M431.63,387.66v11.4s33.53,13.81,69.87-5.7c0,0,1.33-13,4.05-20.68Z" fill="#eca084"/><path d="M500.18,415.65l-20.72,17c-12,7.72-14.19,12.93-14.19,12.93a8.59,8.59,0,0,1-6.65-2.89c-5.65-4.26-12.68-15.31-12.68-15.31a40.12,40.12,0,0,0-2.74-4c2.87,3.48,15.92,17.24,35.13,5.15,0,0,14.41-8.64,21.9-16.74C500.17,414.18,500.18,415.65,500.18,415.65Z" fill="#eca084"/><path d="M510.44,271.89s15.79,14.46,21.59,31.35c0,0,4.26,10.08,1.26,19.68,0,0-4,33-8.65,34.83,0,0-2.56-8.29-10.94-5.73A73.5,73.5,0,0,0,509.16,307S512.28,278.82,510.44,271.89Z" fill="#673b1d"/><path d="M516.87,375.16s-3,19.95-15.69,22.82c0,0,.93-18.79,4.37-25.3C505.55,372.68,508.86,378.71,516.87,375.16Z" fill="#673b1d"/><ellipse cx="462.21" cy="336.38" rx="53.16" ry="62.68" fill="#fec0af"/><ellipse cx="514.49" cy="363.92" rx="12.93" ry="10.01" transform="translate(-43.34 657.11) rotate(-63)" fill="#fec0af"/><path d="M452.68,361.56a1.94,1.94,0,0,1,0,.24c-.47,4.5-4.09,7.81-8.09,7.38a7.1,7.1,0,0,1-5.71-4.43,9,9,0,0,1-.67-4.47c.47-4.5,4.09-7.8,8.09-7.38S453,357.16,452.68,361.56Z" fill="#673b1d"/><path d="M452.68,361.56a1.94,1.94,0,0,1,0,.24c-.47,4.5-4.09,7.81-8.09,7.38a7.1,7.1,0,0,1-5.71-4.43C440.89,364,445,362.71,452.68,361.56Z" fill="#ed785e"/><path d="M404.1,334.4s2.73,13.12,6.56,17.35l8.26-6.45a30.27,30.27,0,0,1,5.55-3.45l1-.52a34.53,34.53,0,0,0,10-7.72c2.89-3.16,9-7.27,19-2.33,0,0,8.32,7.8,28.85,7.28,0,0,1.3-1.06,9.36,1.81,0,0,22.09,8.06,24.69-9.09l13,9.09s8.06-4.93,4.68-15.33l-13.26-15.59s1.56-9.22-1.56-15.27l-9.1-10.46-10.13,4.15Z" fill="#000000"/><path d="M404.1,334.4s2.73,13.12,6.56,17.35l8.26-6.45a30.27,30.27,0,0,1,5.55-3.45l1-.52a34.53,34.53,0,0,0,10-7.72c2.89-3.16,9-7.27,19-2.33,0,0,8.32,7.8,28.85,7.28,0,0,1.3-1.06,9.36,1.81,0,0,22.09,8.06,24.69-9.09l13,9.09s8.06-4.93,4.68-15.33l-13.26-15.59s1.56-9.22-1.56-15.27l-9.1-10.46-10.13,4.15Z" opacity="0.3"/><path d="M410.66,351.75s1,4.25,1.34,5.27l17.12-11.39s6.28-3.89,8.07-9.91c0,0,2.21-4.93,3.83-5.9a11.59,11.59,0,0,0-5.39,3.66A34.71,34.71,0,0,1,426,341l-1.5.75a31,31,0,0,0-5.38,3.38Z" fill="#eca084"/><path d="M441.87,329.53c.55-.31-.8,1-1.1,1.47a8.93,8.93,0,0,0,4.35,12.57,12.57,12.57,0,0,0,3.45.89s-7.41,2-10.28-3.88a8.36,8.36,0,0,1,1.12-8.9A9.2,9.2,0,0,1,441.87,329.53Z" fill="#ed785e"/><path d="M458.85,334s2.3,8.29,23.41,8.67c0,0,26.91,4.09,32.23,5.08,0,0,1.19-3.28.87-10.79,0,0-3.31,9.24-22.63,3.37,0,0-6.09-2.55-9.36-1.81C483.37,338.56,470.09,339.65,458.85,334Z" fill="#eca084"/><path d="M561.69,431.59s-13.81,18.33-11.55,39.8C550.14,471.39,541.22,445,561.69,431.59Z" opacity="0.2"/><path d="M577.56,498.32l-2.82,17.13c-5.83-1.51-7.53,9.79-7.53,9.79L557,546.9c-2.83,6-5.08,4.52-5.08,4.52-1.62-.54-3.22,1.62-3.36,1.83h0v0l-1.85,9.91L378.16,537.3s1.76-17.33-4-11.3l-19.08,8.29-4.63.94h0c9.17-20.64-4.21-27.31-4.21-27.31a51.74,51.74,0,0,1-13.91-16.06L349,500.64c8,8.79,13.06,8.53,13.06,8.53,16.57-2.5,16.82-42.68,16.82-42.68,9.79,13.56,8.28,31.13,8.28,31.13-2,15.07,4.27,22.1,4.27,22.1,11.3,22.6,67.17,7.54,67.17,7.54V463.73c-4.65-16.32-31.26,7.66-31.26,7.66-8.79-15.95-13.69-39.19-13.69-39.19-1.46-7.8-8.55-6.33-9-6.23h0q1.43-2,2.76-3.64c.05-.08.12-.16.18-.24,6.69-8.4,11.3-11.37,13.78-12.42a2,2,0,0,1,.22-.09,5.42,5.42,0,0,1,1.9-.48h0l14.6,23.74,20.49,9.79a13.38,13.38,0,0,0,6.65,2.89l50.78-24.73h0a68.08,68.08,0,0,0,13.15.47c.4,0,.69-.07.88-.1l.29,0,0,0c-8,6-12.23,32.7-12.23,32.7.1,13.57-7.85,17.55-7.85,17.55-9.28,4.55-13.27-4.9-13.27-4.9a28.41,28.41,0,0,0-21.22-10.79v46.7c1.06,19.11,19.37,26.81,19.37,26.81l28.39,10.61c.34.17.66.34,1,.48,10.84,5.05,23.56-1.29,26.6-12.86,2.68-10.23,7.81-25.3,7.81-25.3s12.1-32.12,10.77-47.77c0-.45-.09-.89-.14-1.31-1.9-14.19-13.68-11.51-13.68-11.51.5-8.64-7.34-20.31-7.72-20.87h0l6.74,3.13h0c4.73,6.12,18.29,10.85,18.29,10.85l4,34.37C578.62,482.16,577.56,498.32,577.56,498.32Z" opacity="0.2"/><path d="M502.25,512.44s21.09,1.32,36.34-3.58C538.59,508.86,520.32,522.61,502.25,512.44Z" opacity="0.2"/><path d="M548.21,543.32s3.75-26.74,11.28-36C559.49,507.35,554.81,534.28,548.21,543.32Z" opacity="0.2"/><path d="M630.64,536.24a8.65,8.65,0,0,1-6.09,5c-5.37,1.2-10.72,2.31-13,2.79a14.08,14.08,0,0,0-2.37.72,68.7,68.7,0,0,1-15.71,4.08c-9.24.88-16.08-30.59-16.08-30.59l48.17-8.15C637.68,515.42,633.63,529.28,630.64,536.24Z" opacity="0.2"/><path d="M641.65,563.48s1.85,15.82-21.41,13.65l-28.15-1.8h0l-9.19-3.12c-5.8-2.9-12-12.76-12-12.76-4.56-5.92-2.28-18.43-2.28-18.43l1.82,9.32c2.24,5.92,18.68,13.44,18.68,13.44,18.69,11.16,39.5-2.73,39.5-2.73l14.86-7.17A16.45,16.45,0,0,0,641.65,563.48Z" opacity="0.2"/><path d="M570.45,527.1c.2,3.82.29,7.65.43,11.48l.14,5.75,0,1.43a12.08,12.08,0,0,0,.1,1.36,10.75,10.75,0,0,0,.68,2.62,11.72,11.72,0,0,0,3.12,4.37,55.69,55.69,0,0,0,4.32,3.66,50.42,50.42,0,0,0,9.63,5.85,40.16,40.16,0,0,0,21.92,3.58c7.5-.88,14.68-3.86,21.23-7.81a55.48,55.48,0,0,1-9.92,5.85A42.85,42.85,0,0,1,611,568.56a38.69,38.69,0,0,1-11.67,0,42.5,42.5,0,0,1-11.18-3.39,51,51,0,0,1-9.91-6.13,55.15,55.15,0,0,1-4.36-3.86,12.49,12.49,0,0,1-4-8,12.77,12.77,0,0,1,0-1.51l0-1.43.14-5.75C570.17,534.75,570.25,530.92,570.45,527.1Z" opacity="0.2"/><path d="M373.93,450.1s15.92,25.74,16.72,46.17C390.65,496.27,396.22,469.73,373.93,450.1Z" opacity="0.2"/><path d="M460.91,451.49s-1.21,54.05,1.7,67.15C462.61,518.64,466.49,473.83,460.91,451.49Z" opacity="0.2"/><path d="M591.81,611.87l-44.69-6c-49.21-4.52-85,2.51-85,2.51-14.19-.51-15.6,3.37-15.6,3.37-3.08,2.57-9.74,1.4-9.74,1.4l-13.33-3.19c-8.46-2-7.43-5.13-7.43-5.13-6.19-8.85-16.66-6.41-16.66-6.41-6.93,1.54-22.3.78-22.3.78-23.59,2.55-68.45,9-68.45,9-12.56,3.07-34.35,4.87-34.35,4.87-27.68.76-26.65-2.57-26.65-2.57l-.87-5.2-4-24c8.46-14.64,23.23-25.85,23.23-25.85,29.43-12.89,64.72-18.83,64.72-18.83C396.61,526,403,549.84,403,549.84c29.13-34.89,132.06-2.16,132.06-2.16L571.48,585C575,589.76,591.81,611.87,591.81,611.87Z" fill="#f1f2f2"/><g opacity="0.21"><polygon points="252.26 607.76 251.72 606.92 274.39 592.24 265.49 558.32 266.46 558.07 275.54 592.69 252.26 607.76" fill="#000000"/></g><path d="M591.81,611.87l-44.69-6c-49.21-4.52-85,2.51-85,2.51-14.19-.51-15.6,3.37-15.6,3.37-3.08,2.57-9.74,1.4-9.74,1.4l-13.33-3.19c-8.46-2-7.43-5.13-7.43-5.13-6.19-8.85-16.66-6.41-16.66-6.41-6.93,1.54-22.3.78-22.3.78-23.59,2.55-68.45,9-68.45,9-12.56,3.07-34.35,4.87-34.35,4.87-27.68.76-26.65-2.57-26.65-2.57l-.87-5.2s8.14-9,35.45-13.58L337,581.41s92.92-28.36,106.79,20.21c0,0,20.63-33.59,63.56-24.29,0,0,53.35,8.1,64.15,7.66C575,589.76,591.81,611.87,591.81,611.87Z" fill="#e6e7e8"/><path d="M466.22,598.93a167.29,167.29,0,0,1,22.68-5.16,204.56,204.56,0,0,1,23.17-2.36c3.88-.23,7.76-.16,11.65-.18,1.94,0,3.88.14,5.82.21l2.91.12,2.9.27a157.81,157.81,0,0,1,23,3.59l-5.73-1-2.87-.49c-1-.13-1.92-.22-2.88-.34l-5.76-.7c-1.93-.17-3.86-.28-5.79-.43l-2.89-.2-2.9-.1c-1.94-.06-3.87-.14-5.8-.17-3.87,0-7.74,0-11.6.25a223.56,223.56,0,0,0-23.1,2.15c-1.92.28-3.83.6-5.74.89s-3.81.69-5.71,1C473.75,597.1,470,597.94,466.22,598.93Z" fill="#000000" opacity="0.21"/><path d="M480.23,601.61a236.53,236.53,0,0,1,23.92-2.24c8-.39,16-.46,24-.36l6,.18,3,.09,3,.16,6,.31,6,.45c4,.27,8,.74,12,1.12s7.94,1,11.91,1.52c-8-.74-15.93-1.5-23.92-2s-16-.82-24-1-16-.08-24,.17c-2,.05-4,.12-6,.23s-4,.21-6,.33C488.2,600.85,484.21,601.17,480.23,601.61Z" fill="#000000" opacity="0.21"/><path d="M298.09,595.27a178.55,178.55,0,0,0,34.11-3.58c1.4-.28,2.79-.64,4.18-1s2.77-.72,4.15-1.08a60.94,60.94,0,0,1,8.44-1.8,164.53,164.53,0,0,1,17.15-1.68,133.33,133.33,0,0,1,34.29,2.72,91.33,91.33,0,0,1,16.4,5.25,72.61,72.61,0,0,1,14.82,8.69c-9.3-6.74-20.2-11-31.36-13.28a136.44,136.44,0,0,0-34.11-2.51,162.86,162.86,0,0,0-17.07,1.6,59.69,59.69,0,0,0-8.36,1.75c-1.39.35-2.78.73-4.18,1.05s-2.8.64-4.22.9A160.65,160.65,0,0,1,298.09,595.27Z" fill="#000000" opacity="0.21"/><path d="M276.38,607.34c6.16-.43,12.3-1.12,18.42-1.92s12.23-1.69,18.31-2.73,12.15-2.2,18.18-3.48c3-.66,6-1.32,9-2.05s6.05-1.39,9.09-1.9q9.15-1.56,18.43-2.24c3.08-.23,6.18-.38,9.27-.43,1.55,0,3.1,0,4.64,0s3.1.06,4.65.16a101.88,101.88,0,0,1,18.39,2.46,74.29,74.29,0,0,1,8.85,2.76,55.27,55.27,0,0,1,8.28,4.16,55,55,0,0,0-8.35-4,74.27,74.27,0,0,0-8.88-2.54,103.6,103.6,0,0,0-18.32-2.21,180.22,180.22,0,0,0-36.81,2.72c-3.05.51-6,1.12-9.05,1.85s-6,1.38-9.05,2c-6.06,1.24-12.13,2.43-18.24,3.36A345.34,345.34,0,0,1,276.38,607.34Z" fill="#000000" opacity="0.21"/><g opacity="0.21"><path d="M403,549.84q5.57,7.38,11.56,14.41c2,2.34,4.07,4.62,6.21,6.84a45,45,0,0,0,6.9,6l-.22.31a24.29,24.29,0,0,0-5.15-2.5,55.66,55.66,0,0,0-5.51-1.7c-1.89-.37-3.75-.88-5.67-1.09l-2.86-.42c-1-.13-1.92-.17-2.88-.25l-2.88-.24c-1-.06-1.93,0-2.89-.07-1.93,0-3.86-.14-5.79,0l-5.78.23-5.76.54c-1.93.14-3.83.43-5.74.71l-5.73.84c-3.79.76-7.59,1.43-11.36,2.28s-7.51,1.78-11.24,2.79l-11.12,3.23-.23-.76c6.44-1.71,12.94-3.11,19.48-4.34s13.11-2.21,19.73-2.9a158.17,158.17,0,0,1,19.95-.93,92.52,92.52,0,0,1,10,.76,59.85,59.85,0,0,1,9.81,2.07h0a44.88,44.88,0,0,1,9.46,3.48,41.47,41.47,0,0,1,8.45,5.48,32.5,32.5,0,0,1,6.64,7.58,30,30,0,0,1,3.83,9.31l-.72-.1a51.92,51.92,0,0,1,10.17-11.79,56.82,56.82,0,0,1,13-8.51,57.81,57.81,0,0,1,14.81-4.69,66.51,66.51,0,0,1,15.5-.74c1.3.09,2.59.17,3.87.36s2.58.29,3.85.54c2.54.49,5.1.79,7.66,1.15l15.35,2.12,30.69,4.26-30.74-3.93-15.38-2c-2.56-.34-5.13-.64-7.66-1.11-1.27-.25-2.55-.38-3.83-.53s-2.56-.26-3.84-.34a65.94,65.94,0,0,0-15.37.79,57.45,57.45,0,0,0-14.63,4.69,55.8,55.8,0,0,0-12.81,8.46,51.16,51.16,0,0,0-10,11.62l-.49.82-.23-.93a28.89,28.89,0,0,0-3.76-9.05,31.25,31.25,0,0,0-6.5-7.36,39.91,39.91,0,0,0-8.29-5.34,44.09,44.09,0,0,0-9.26-3.37h0a58.54,58.54,0,0,0-9.66-2,88,88,0,0,0-9.88-.72,162.1,162.1,0,0,0-19.82.87c-6.59.67-13.15,1.64-19.68,2.83s-13,2.57-19.42,4.24l-.22-.76,11.17-3.2c3.74-1,7.52-1.83,11.28-2.76s7.6-1.49,11.4-2.24l5.75-.82c1.92-.28,3.83-.56,5.77-.7l5.78-.51,5.81-.22c1.94-.12,3.88,0,5.81,0,1,0,1.94,0,2.91.09l2.9.24c1,.1,1.93.14,2.89.27l2.88.43c1.93.23,3.81.75,5.71,1.12a56.81,56.81,0,0,1,5.55,1.77,24.61,24.61,0,0,1,5.23,2.62l-.23.31a44.49,44.49,0,0,1-6.9-6.17c-2.12-2.24-4.16-4.56-6.14-6.92Q408.49,557.29,403,549.84Z" fill="#000000"/></g><path d="M425.22,536.9s3.83,28.28,33.55,49.57c0,0-8,3.65-15,15.15,0,0-3.36-17.07-18.55-22l2.36-2.34s-3.92.31-24.57-27.46C403,549.84,411.69,539.35,425.22,536.9Z" fill="#000000" opacity="0.21"/><path d="M447.65,554.34c6.82-1.42,13.73-2.4,20.65-3.18s13.89-1.19,20.86-1.42,13.95,0,20.9.51a146.51,146.51,0,0,1,20.66,3.11c-3.45-.5-6.85-1.2-10.32-1.5-1.73-.18-3.45-.46-5.19-.56l-5.19-.38c-6.94-.36-13.89-.55-20.84-.31s-13.89.61-20.81,1.22c-3.46.31-6.92.67-10.37,1.1S451.1,553.82,447.65,554.34Z" fill="#000000" opacity="0.21"/><path d="M452.22,566.59a79.61,79.61,0,0,1,19.62-6.2,134.52,134.52,0,0,1,20.52-2.19l5.16,0c1.72,0,3.44.11,5.16.15,3.44.08,6.86.42,10.29.75,1.71.12,3.41.4,5.11.64l5.11.74c3.37.62,6.74,1.31,10.1,2-3.4-.5-6.77-1.11-10.17-1.59l-5.11-.61c-1.7-.19-3.4-.43-5.11-.52-3.42-.22-6.82-.59-10.25-.62-1.71,0-3.42-.15-5.14-.11l-5.13.08a144.19,144.19,0,0,0-20.42,2c-3.37.6-6.72,1.29-10,2.22A65.52,65.52,0,0,0,452.22,566.59Z" fill="#000000" opacity="0.21"/><path d="M460.66,574.7a16.33,16.33,0,0,1,4.75-2.62c.84-.34,1.72-.59,2.58-.88s1.75-.47,2.63-.71a26.93,26.93,0,0,1,2.67-.56l2.68-.5c1.81-.22,3.61-.47,5.41-.66a172.09,172.09,0,0,1,21.78-.38c7.25.39,14.48,1,21.68,1.89l5.39.71c1.8.23,3.6.47,5.38.77l10.73,1.81c-7.2-.89-14.37-1.9-21.58-2.62s-14.41-1.36-21.64-1.68a182.32,182.32,0,0,0-21.68.17c-1.8.15-3.59.36-5.39.54l-2.67.43-1.34.22c-.44.07-.88.19-1.32.28-.88.21-1.77.36-2.64.61s-1.74.48-2.59.78a22.74,22.74,0,0,0-2.51,1,9.08,9.08,0,0,0-1.2.62A7.12,7.12,0,0,0,460.66,574.7Z" fill="#000000" opacity="0.21"/><ellipse cx="309.36" cy="556.4" rx="11.27" ry="10.19" fill="#000000" opacity="0.21"/><path d="M306,555.35l9.36,20.38s54.06-16.64,91.7-9.14l-15.83-18.86S351.12,539.24,306,555.35Z" fill="#000000" opacity="0.21"/><path d="M431.63,397.91s-6.21,2-8.09,11.2a5.45,5.45,0,0,0-3,6.54L426,466.49s6.59-10.54,14.69-12.61c0,0,14.44-3.84,17.95-11.24,0,0-7.43-5.67-15.42-19.34,0,0-3.27-5.18-11.56-11.5Z" fill="#530fca"/><path d="M431.63,397.91s-6.21,2-8.09,11.2a5.45,5.45,0,0,0-3,6.54L426,466.49s6.59-10.54,14.69-12.61c0,0,14.44-3.84,17.95-11.24,0,0-7.43-5.67-15.42-19.34,0,0-3.27-5.18-11.56-11.5Z" fill="#fff" opacity="0.2"/><path d="M431.63,397.91a8,8,0,0,0-5.34,7.31A9.73,9.73,0,0,0,429,412a17.59,17.59,0,0,0,4.86,3.66,58.67,58.67,0,0,1,5.59,3.12c-1.27-1.33-2.71-2.73-4.33-4.14-1.2-1-2.38-2-3.51-2.83Q431.64,404.86,431.63,397.91Z" fill="#fff" opacity="0.2"/><path d="M431.63,411.71s-5.65-5.27,0-13.89Z" fill="#530fca"/><path d="M431.63,411.71s-5.65-5.27,0-13.89Z" opacity="0.2"/><path d="M502.44,471.39a44.57,44.57,0,0,0-3.82-9.11c-4.83-8.83-14.86-20.4-33.35-16.75,0,0,4.21-6.9,14.19-12.93l20.72-17s16.29-9.81,1-17.67c0,0,0-.07,0-.07,1.3.07,10.4,1,12,13.8C513.17,411.71,529.74,449.74,502.44,471.39Z" fill="#530fca"/><path d="M502.44,471.39a44.57,44.57,0,0,0-3.82-9.11c-4.83-8.83-14.86-20.4-33.35-16.75,0,0,4.21-6.9,14.19-12.93l20.72-17s16.29-9.81,1-17.67c0,0,0-.07,0-.07,1.3.07,10.4,1,12,13.8C513.17,411.71,529.74,449.74,502.44,471.39Z" fill="#fff" opacity="0.2"/><path d="M502.44,471.39a44.57,44.57,0,0,0-3.82-9.11s18.25-21.25,14.55-50.57C513.17,411.71,529.74,449.74,502.44,471.39Z" fill="#fff" opacity="0.2"/><path d="M282.33,512.6s-2.35,15.2,13.28,16.06a23.58,23.58,0,0,0,18-5.35l18.12-14.08a4.54,4.54,0,0,0,1.74-4c-.93-9.18-3.85-41.92-1-66.59a44.37,44.37,0,0,1,1.24-6.48,63.73,63.73,0,0,1,8-18.18,28.53,28.53,0,0,1,4.43-5.07h0a44.75,44.75,0,0,1,6.89-5c2.6-1.57,6.5-5.57,8-15.62,0,0,0-6.65,5.14-17.56,0,0,14.13-20.13,6.64-23.34,0,0-5.88-2.84-12.1,12.32a23.09,23.09,0,0,1-5,7.62c-2,2-4.25,3.5-5.22,1.47a87.46,87.46,0,0,1-.79-22.78,34.84,34.84,0,0,1,1-5.38c1.88-7.39,7.14-30.77.89-38.83A2.67,2.67,0,0,0,347,303c-1.93,10.47-7.77,39.3-13.89,41.4,0,0-2.36-12.21-1.07-16.27,0,0,3.64-24.41-.43-31,0,0-4.28-6.43-7.06,0a53.3,53.3,0,0,0-2.14,18.19s-10.07,16.49-7.07,30.4c0,0-9.2,9-9.2,15.41,0,0-2.57,16.49-3.86,22,0,0-1.71,16.47,1.07,25.25,0,0,.86,5.15-2.57,19.06C300.74,427.4,284.05,485.85,282.33,512.6Z" fill="#fec0af"/><path d="M338.85,357.62a57.94,57.94,0,0,1-11.2,9.84s-9,4.18-2,19.8l4.72,11.23a.26.26,0,0,0,.51-.09A22.78,22.78,0,0,1,336,384a20.16,20.16,0,0,0,3.29-5.42C341.62,372.79,345,361.86,338.85,357.62Z" fill="#eca084"/><path d="M332.64,401.29a31.34,31.34,0,0,1,.75-5.71A35.62,35.62,0,0,1,335,390a28.62,28.62,0,0,1,2.68-5.15,23.26,23.26,0,0,1,1.81-2.26,17,17,0,0,1,2.15-1.93,23.48,23.48,0,0,0-1.81,2.2,23,23,0,0,0-1.58,2.35,43.44,43.44,0,0,0-2.43,5.11c-.7,1.76-1.28,3.56-1.82,5.38-.28.91-.52,1.83-.74,2.76S332.85,400.35,332.64,401.29Z" fill="#eca084"/><path d="M314.36,413.71s5.91,5.58,14.95.56c0,0,12.16-7.67,16.9-5.4,0,0-7.08,5.29-11.49,20,0,0-6.41-7.09-10.66-6.53C324.06,422.3,315.36,421.41,314.36,413.71Z" fill="#eca084"/><path d="M327.5,335.14c-.46-2.79,1.32-7.82,2.33-10.39a12.9,12.9,0,0,1,1.29-2.47c6.06-9,3.45-16,3.45-16-2.14-6-12.2,9-12.2,9s-7.75,12.07-7.63,25l.56,5.39s13.92-15.84,16.48-10.49a11.94,11.94,0,0,1-.84,10.33,14.27,14.27,0,0,1-3.57,4.13c-2.7,2.18-8.72,7.71-8.22,13.37" fill="#fec0af" stroke="#eca084" stroke-miterlimit="10"/><path d="M315.3,345.63c6.84-8.61,12.2-10.49,12.2-10.49-.85-4.07,3-12,3-12a23.16,23.16,0,0,0,4.63-9.63c-3.3-.64-9.13,11.56-9.13,11.56-5.56,10.06-11.26,15.16-11.26,15.16a28.13,28.13,0,0,0,.16,2.91C315,344.05,315.14,344.88,315.3,345.63Z" fill="#eca084"/><path d="M539,357.75s-2.05-4.43-4.6,2c0,0-2.64,6.92-1.23,12.95a59.49,59.49,0,0,1,3.58,13.6s2.44,11.11,5.83,15.44c0,0,3,7.12,6.32,13.57a35.88,35.88,0,0,0,12.84,14,47.06,47.06,0,0,0,11.54,5.37s6.59,39.75,4.33,63.67l-2.83,17.13s29,33.71,48.58,23.73c0,0,9-4.22,3.58-20.53,0,0-7.91-51.22-17.13-74.57,0,0-10.36-26.89-17.14-37.26,0,0-10.83-17.63-10.73-30.71,0,0-.56-19.59-1.72-21.72,0,0,.84-7-1.8-12.3L566.1,315.58a2.24,2.24,0,0,0-4.17.26c-1.43,4.57-2.18,12.16,3.4,21.1l-6.66-6a4,4,0,0,0-2.51,3.89l-13.88-17.1a2.1,2.1,0,0,0-3.59.53c-1.32,3.18-2,9.23,3.92,18.7a104.23,104.23,0,0,1,10.16,27.62s2.19,11.5,1.36,16.09a1.43,1.43,0,0,1-2.43.72,19.6,19.6,0,0,1-4.62-7.37Z" fill="#fec0af"/><path d="M553.55,381.54l11.65,25.2s6.28,4.14,5.78-9.29l-3.27-33.53-11.55-29.11-2.61-3.22s-2.41,7.87-.6,14.7a23.19,23.19,0,0,1,.69,5.45c.09,4.59.17,12.4-.25,16.48C553.39,368.22,555.58,380.57,553.55,381.54Z" fill="#eca084"/><path d="M577.75,384.52,564,366.37a3.05,3.05,0,0,0-5.38,1c-1.18,4.38,2,11.13,2,11.13,2.64,4.65,10.32,20.59,10.32,20.59" fill="#fec0af" stroke="#eca084" stroke-miterlimit="10"/><path d="M567.71,363.92s-5.48-12.25-8.91-16.83a17.18,17.18,0,0,1-3.25-7.43c-.45-2.74-.27-5.83,1.94-7.88a1.44,1.44,0,0,1,2,.1l19.73,22.38" fill="#fec0af" stroke="#eca084" stroke-miterlimit="10"/><path d="M573.24,434.65s6,.21,9.66-1.8A249.94,249.94,0,0,0,577.29,469S574.87,443.23,573.24,434.65Z" fill="#eca084"/><path d="M372.86,272.7l137.58-.81,138.89-86.64S601.12,40.64,399.52,52.53c0,0-84.7-1-174.85,90.16Z" fill="#f1f2f2" opacity="0.57"/><path d="M565.32,138.78,541.8,116.24l30.7-9.47Zm-21.83-22.14,21.31,20.43,6.51-29Z" fill="#530fca"/><polygon points="536.73 114.89 567.86 105.86 559.77 137.92 536.73 114.89" fill="#530fca"/><path d="M327.31,199.87,314,164.64l34.06-12.14,12.79,32.95Zm-12.17-34.71,12.66,33.53L359.72,185l-12.17-31.35Z" fill="#000000"/><rect x="324.94" y="194.82" width="9.16" height="0.88" transform="translate(0.37 391.15) rotate(-61.41)" fill="#000000"/><polygon points="330.72 192.2 319.5 158.93 320.33 158.65 331.27 191.08 358.77 181.28 359.07 182.11 330.72 192.2" fill="#000000"/><path d="M433.48,212.42a2.94,2.94,0,0,1-2.84-2.18l-.37-1.4.13-.18L460,169.21l6.28-1a3.76,3.76,0,0,1,4.28,2.9l6.23,27.7a3,3,0,0,1-2.15,3.49l-40.4,10.05A2.88,2.88,0,0,1,433.48,212.42Zm-2.25-3.4.26,1a2.06,2.06,0,0,0,2.48,1.47l40.4-10.06a2,2,0,0,0,1.51-2.44l-6.23-27.7a2.88,2.88,0,0,0-3.28-2.22l-5.93,1Z" fill="#000000"/><path d="M356.4,86.12,353.21,99l-3.13-.78L352,90.5l-4.79,7-2.53-.62-1-8.46-1.92,7.74-3.13-.77,3.18-12.88,3.71.91,1.41,9.81,5.78-8Z" fill="#000000"/><path d="M363.72,91a3.41,3.41,0,0,1,1,1.47l.36-1.45,3.13.77-2.52,10.22a6,6,0,0,1-1.19,2.43,4.4,4.4,0,0,1-2.16,1.4,5.63,5.63,0,0,1-3,0,6.1,6.1,0,0,1-3.43-2,4.18,4.18,0,0,1-.89-3.31l3.1.77a1.55,1.55,0,0,0,.47,1.1,2.62,2.62,0,0,0,1.27.67,2.24,2.24,0,0,0,1.69-.17,2.47,2.47,0,0,0,1-1.65l.36-1.45a3.51,3.51,0,0,1-1.55.85,3.92,3.92,0,0,1-2,0,4.29,4.29,0,0,1-2.13-1.21A4.66,4.66,0,0,1,356,97.19a6.32,6.32,0,0,1,.09-2.92,6.23,6.23,0,0,1,1.28-2.63,4.6,4.6,0,0,1,2.07-1.43,4.37,4.37,0,0,1,2.46-.08A4.11,4.11,0,0,1,363.72,91Zm-.13,3.12a2.27,2.27,0,0,0-3.17-.79,2.58,2.58,0,0,0-1.11,1.68,2.71,2.71,0,0,0,.19,2,2.19,2.19,0,0,0,1.42,1.08,2.17,2.17,0,0,0,1.75-.29,2.6,2.6,0,0,0,1.11-1.69A2.69,2.69,0,0,0,363.59,94.16Z" fill="#000000"/><path d="M369.52,102.42a18.08,18.08,0,0,1,2.93-11.7,11.7,11.7,0,0,1,4-3.75l3.08.76-.07.3a13.36,13.36,0,0,0-4.1,3.84,15.21,15.21,0,0,0-2.4,5.24,15,15,0,0,0-.33,5.66,13.71,13.71,0,0,0,1.73,5.21l-.08.3-3.1-.77A11.93,11.93,0,0,1,369.52,102.42Z" fill="#000000"/><path d="M379.62,104.76a6.43,6.43,0,0,1-1.82-3,7.15,7.15,0,0,1,1.68-6.8,6.51,6.51,0,0,1,3-1.75,7.22,7.22,0,0,1,6.66,1.64,6.53,6.53,0,0,1,1.81,2.94,7.27,7.27,0,0,1-1.69,6.8,6.57,6.57,0,0,1-3,1.77,7.18,7.18,0,0,1-6.65-1.65Zm6.55-1.61a4.6,4.6,0,0,0,1.35-5.44,3.64,3.64,0,0,0-5-1.23A4,4,0,0,0,381,99a4,4,0,0,0,.26,3,3.61,3.61,0,0,0,4.95,1.21Z" fill="#000000"/><path d="M405.44,98.23l-3.18,12.89-3.14-.78,1.31-5.3-4.88-1.21-1.31,5.3-3.13-.77,3.18-12.88,3.13.77-1.24,5,4.88,1.21,1.25-5.05Z" fill="#000000"/><path d="M402.73,115.3l.07-.29a13.79,13.79,0,0,0,4-3.81,15.43,15.43,0,0,0,2.66-10.92A13.34,13.34,0,0,0,407.57,95l.08-.29,3.08.76a11.52,11.52,0,0,1,1.81,5.19,17,17,0,0,1-.43,6.15,17.34,17.34,0,0,1-2.42,5.58,11.94,11.94,0,0,1-3.86,3.72Z" fill="#000000"/><path d="M414.15,110.9c1.45-.7,2.59-1.28,3.44-1.74a12.29,12.29,0,0,0,2.25-1.57,3.75,3.75,0,0,0,1.21-1.86,1.83,1.83,0,0,0-.05-1.26,1.35,1.35,0,0,0-.95-.68,1.33,1.33,0,0,0-1.22.26,2.47,2.47,0,0,0-.76,1.37l-3-.74a5.33,5.33,0,0,1,1.31-2.44,4,4,0,0,1,2.05-1.13,5.38,5.38,0,0,1,2.42.07,4.56,4.56,0,0,1,3,1.93,4.07,4.07,0,0,1,.39,3.2,5.91,5.91,0,0,1-2.24,3.31,20,20,0,0,1-4.22,2.43l5,1.22-.63,2.55-9.22-2.27.58-2.33Z" fill="#000000"/><path d="M520.81,172.69a4.72,4.72,0,0,1-1-2.38,4.27,4.27,0,0,1,.55-2.56l3.32,1.93a1.82,1.82,0,0,0-.14,1.37,1.85,1.85,0,0,0,.88,1,2,2,0,0,0,1.28.31,1.23,1.23,0,0,0,.91-.65,1.24,1.24,0,0,0,.14-1,3.28,3.28,0,0,0-.49-1,15.11,15.11,0,0,0-1.06-1.22,15.56,15.56,0,0,1-1.58-1.94,4.26,4.26,0,0,1-.69-1.91,3.65,3.65,0,0,1,.56-2.28,3.91,3.91,0,0,1,2.92-2.05,7.16,7.16,0,0,1,6.78,3.94,4.18,4.18,0,0,1-.24,3.62l-3.38-2a1.52,1.52,0,0,0,.11-1.24,1.82,1.82,0,0,0-.87-1,1.56,1.56,0,0,0-1.08-.23,1.26,1.26,0,0,0-.85.67,1.24,1.24,0,0,0,0,1.3,11.43,11.43,0,0,0,1.39,1.81,19.91,19.91,0,0,1,1.55,2,4.44,4.44,0,0,1,.7,1.89,3.42,3.42,0,0,1-.53,2.2A4.23,4.23,0,0,1,528.3,175a4.56,4.56,0,0,1-2.44.49,6.55,6.55,0,0,1-2.8-.92A7.52,7.52,0,0,1,520.81,172.69Z" fill="#000000"/><path d="M543.19,178.85l-1.6,2.75-10.21-5.92,1.6-2.76Zm2.7-4.65-1.6,2.75L534.08,171l1.59-2.76Z" fill="#000000"/><path d="M554.39,178.26a1.7,1.7,0,0,0-.84-.94,1.79,1.79,0,0,0-2,0,8,8,0,0,0-2.13,2.58,3.17,3.17,0,0,1,1.74-.33,4.78,4.78,0,0,1,4.1,3.4,5,5,0,0,1-.74,3.78,5.62,5.62,0,0,1-1.9,2,4.41,4.41,0,0,1-2.47.66,5.79,5.79,0,0,1-2.77-.84q-2.8-1.63-2.88-4a11.19,11.19,0,0,1,1.84-5.69c1.34-2.31,2.72-3.81,4.15-4.48a4.82,4.82,0,0,1,4.69.46,5.33,5.33,0,0,1,2,1.88,4.17,4.17,0,0,1,.6,2.24,5.41,5.41,0,0,1-.53,2.24l-2.9-1.68A2.14,2.14,0,0,0,554.39,178.26ZM549.27,182a2,2,0,0,0-1.28,1,2.16,2.16,0,0,0-.31,1.65,2.13,2.13,0,0,0,1.09,1.29,2,2,0,0,0,1.55.25,2.17,2.17,0,0,0,1.23-1,2.25,2.25,0,0,0,.33-1.62,2,2,0,0,0-1-1.25A2.2,2.2,0,0,0,549.27,182Z" fill="#000000"/><path d="M558.55,184.51a5.14,5.14,0,0,1,2.68-.88,4.86,4.86,0,0,1,2.65.68,4.64,4.64,0,0,1,1.63,1.53,3.69,3.69,0,0,1,.58,1.88l.84-1.45,3.12,1.81-5.9,10.18L561,196.45l.83-1.44a3.75,3.75,0,0,1-1.93.41,4.57,4.57,0,0,1-2.14-.65,4.81,4.81,0,0,1-1.89-2,5.15,5.15,0,0,1-.54-2.78,7,7,0,0,1,1-3.11A7.11,7.11,0,0,1,558.55,184.51Zm5.85,4.63a2.54,2.54,0,0,0-3.15-1.83,2.91,2.91,0,0,0-1.71,1.45,3,3,0,0,0-.43,2.23,2.43,2.43,0,0,0,1.19,1.6,2.4,2.4,0,0,0,2,.24,2.93,2.93,0,0,0,1.72-1.47A3,3,0,0,0,564.4,189.14Z" fill="#000000"/><path d="M570.54,191.55c1-.17,1.85-.33,2.46-.46a8.18,8.18,0,0,0,1.69-.57,2.47,2.47,0,0,0,1.1-.94,1.2,1.2,0,0,0,.19-.8.86.86,0,0,0-.46-.6.9.9,0,0,0-.81-.06,1.6,1.6,0,0,0-.72.72l-1.76-1a3.35,3.35,0,0,1,1.27-1.29,2.6,2.6,0,0,1,1.48-.33,3.45,3.45,0,0,1,1.5.49,3,3,0,0,1,1.53,1.75,2.67,2.67,0,0,1-.33,2.07,3.89,3.89,0,0,1-2,1.66,13.62,13.62,0,0,1-3.08.75l2.87,1.66-.86,1.48L569.28,193l.78-1.36Z" fill="#000000"/><path d="M416.93,175.45,424.1,208a2.41,2.41,0,0,0,2.9,1.83l43.21-10A2.39,2.39,0,0,0,472,197l-5.71-24.86a3.75,3.75,0,0,0-4.41-2.83L442,173.4l-1-3.65a3.52,3.52,0,0,0-4.21-2.54l-17.23,4A3.53,3.53,0,0,0,416.93,175.45Z" fill="#000000"/><polygon points="481.79 84.39 462 76.22 462.33 75.41 481.76 83.42 494.66 76.97 495.05 77.76 481.79 84.39" fill="#530fca"/><polygon points="494.54 97.91 481.79 84.56 472.14 95.41 471.49 94.82 481.76 83.26 495.17 97.3 494.54 97.91" fill="#530fca"/><circle cx="481.78" cy="83.91" r="3.27" fill="#000000"/><circle cx="471.81" cy="95.11" r="4.83" fill="#000000"/><circle cx="494.85" cy="77.37" r="4.83" fill="#000000"/><circle cx="462.16" cy="75.81" r="4.83" fill="#000000"/><circle cx="494.85" cy="97.61" r="4.83" fill="#000000"/><path d="M314.82,165.25a.5.5,0,0,1-.42-.23.51.51,0,0,1,0-.63l5.23-6L351,147.09a.61.61,0,0,1,.68.19.62.62,0,0,1,0,.71l-3.62,5.43L315,165.22A.57.57,0,0,1,314.82,165.25Zm5.35-6.09L316,163.92l31.51-11.23,3-4.49Z" fill="#000000"/><polygon points="347.8 153.06 351.62 147.33 365.29 180.34 360.41 185.53 347.8 153.06" fill="#000000"/><path d="M373.72,259.36s-.84-9.81,10.08-12.06c0,0,20.72-4.32,60.07-4.51,0,0,43.05-1.6,47.88,3.58,0,0,5,2.63,5,11.11,0,0-1.6,31.63-5,40.86,0,0-1.74,7.91-13.23,8.28,0,0-66.85,9.42-102.06,2.83,0,0-7-1.13-6.21-13.94Z" fill="#000000"/><path d="M494,248.63a106,106,0,0,1,16.48,23.26A5.35,5.35,0,0,1,511,274a183.48,183.48,0,0,1-4.18,46.08c-.95,9.84-51.63,11.74-51.63,11.74-4.48-6.54-12.21-7-12.21-7a17.93,17.93,0,0,0-16,9.28H397L376.27,313.5c-3.76-2.93-2.26-7.44-2.26-7.44Z" fill="#000000"/><path d="M390.19,327.3s-6.23-10.78,18.86-12.63l48.19-1.83A127,127,0,0,0,478,310.58a28.61,28.61,0,0,1,14.49,1.21l12.81,6.94s-10.73-15.12-8.47-26.23c0,0,3.66-21.4-.16-32.36,0,0-1.44,29.73-4.88,38.2,0,0-1.74,8.1-13.23,8.28,0,0-59.84,7.39-82.3,4.91,0,0-22.79-1.7-22.5-3.58,0,0-.33,2.68,2.55,5.55Z" opacity="0.2"/><path d="M375.08,297.77c-.07,9,5.71,8.29,5.71,8.29,22.79,3.39,65.72,0,65.72,0a340.25,340.25,0,0,0,36.15-4.52c10.3-.1,9-48.39,9-48.39,0-4.52-5.84-4.52-5.84-4.52-18.45-1.51-41.05-1.32-41.05-1.32-36.71.38-59.88,4.71-59.88,4.71-5.83.94-6.77,5.27-6.77,5.27S375.39,283.67,375.08,297.77Z" opacity="0.2"/><path d="M382.67,303.24s-3.57-.22-3.57-9.06l1.79-30.11s.09-8.48,8.56-8.85c0,0,36.13-4.22,52.6-3.71a.4.4,0,0,1,.09.78C432,255.17,393.59,268.21,382.67,303.24Z" fill="#fff" opacity="0.2"/><path d="M437.66,303.24s32.57-15.26,38.6-43.5c0,0,1.55-11.2,6.78-9.79,0,0,5.46-.19,4.52,8.66,0,0,2.46,39-11.1,41.07C476.46,299.68,449.52,302.67,437.66,303.24Z" fill="#fff" opacity="0.2"/></svg>